HIERARCHY
ROOT Hips
{
    OFFSET   0.000000   0.000000   0.000000
    CHANNELS 6 Xposition Yposition Zposition Zrotation Xrotation Yrotation
    JOINT Chest
    {
        OFFSET   0.000000   8.007230   0.000000
        CHANNELS 3 Zrotation Xrotation Yrotation
        JOINT Chest2
        {
            OFFSET   0.000000  22.077100   0.000000
            CHANNELS 3 Zrotation Xrotation Yrotation
            JOINT Neck
            {
                OFFSET   0.000000  23.254700   0.000000
                CHANNELS 3 Zrotation Xrotation Yrotation
                JOINT Head
                {
                    OFFSET   0.000010  14.370000   1.956610
                    CHANNELS 3 Zrotation Xrotation Yrotation
                    End Site
                    {
                        OFFSET   0.000000  19.566000   0.000000
                    }
                }
            }
            JOINT LeftCollar
            {
                OFFSET   3.911900  19.017000  -0.467063
                CHANNELS 3 Zrotation Xrotation Yrotation
                JOINT LeftShoulder
                {
                    OFFSET  10.383700   0.000000   0.000000
                    CHANNELS 3 Zrotation Xrotation Yrotation
                    JOINT LeftElbow
                    {
                        OFFSET  26.662100   0.001671   0.000522
                        CHANNELS 3 Zrotation Xrotation Yrotation
                        JOINT LeftWrist
                        {
                            OFFSET  28.869000   0.000037  -0.000114
                            CHANNELS 3 Zrotation Xrotation Yrotation
                            JOINT LeftFinger0
                            {
                                OFFSET   2.044650  -2.323450   3.252850
                                CHANNELS 3 Zrotation Xrotation Yrotation
                                JOINT LeftFinger01
                                {
                                    OFFSET   3.088140   0.000000   0.000000
                                    CHANNELS 3 Zrotation Xrotation Yrotation
                                    JOINT LeftFinger02
                                    {
                                        OFFSET   2.639460   0.000000   0.000000
                                        CHANNELS 3 Zrotation Xrotation Yrotation
                                        End Site
                                        {
                                            OFFSET   2.582190   0.000000   0.000000
                                        }
                                    }
                                }
                            }
                            JOINT LeftFinger1
                            {
                                OFFSET   8.364480   0.000000   3.252850
                                CHANNELS 3 Zrotation Xrotation Yrotation
                                JOINT LeftFinger11
                                {
                                    OFFSET   4.646930   0.000000   0.000000
                                    CHANNELS 3 Zrotation Xrotation Yrotation
                                    JOINT LeftFinger12
                                    {
                                        OFFSET   2.323470   0.000000   0.000000
                                        CHANNELS 3 Zrotation Xrotation Yrotation
                                        End Site
                                        {
                                            OFFSET   2.273050   0.000000   0.000000
                                        }
                                    }
                                }
                            }
                            JOINT LeftFinger2
                            {
                                OFFSET   8.364490   0.000016   1.078090
                                CHANNELS 3 Zrotation Xrotation Yrotation
                                JOINT LeftFinger21
                                {
                                    OFFSET   5.111620   0.000000   0.000000
                                    CHANNELS 3 Zrotation Xrotation Yrotation
                                    JOINT LeftFinger22
                                    {
                                        OFFSET   2.788150   0.000013   0.000000
                                        CHANNELS 3 Zrotation Xrotation Yrotation
                                        End Site
                                        {
                                            OFFSET   2.727660   0.000000   0.000000
                                        }
                                    }
                                }
                            }
                            JOINT LeftFinger3
                            {
                                OFFSET   7.899780   0.000016  -1.078090
                                CHANNELS 3 Zrotation Xrotation Yrotation
                                JOINT LeftFinger31
                                {
                                    OFFSET   4.646930   0.000000   0.000000
                                    CHANNELS 3 Zrotation Xrotation Yrotation
                                    JOINT LeftFinger32
                                    {
                                        OFFSET   2.323470   0.000000   0.000000
                                        CHANNELS 3 Zrotation Xrotation Yrotation
                                        End Site
                                        {
                                            OFFSET   2.273050   0.000000   0.000000
                                        }
                                    }
                                }
                            }
                            JOINT LeftFinger4
                            {
                                OFFSET   7.435080   0.000000  -3.252850
                                CHANNELS 3 Zrotation Xrotation Yrotation
                                JOINT LeftFinger41
                                {
                                    OFFSET   3.717550   0.000000   0.000000
                                    CHANNELS 3 Zrotation Xrotation Yrotation
                                    JOINT LeftFinger42
                                    {
                                        OFFSET   1.858760   0.000000   0.000000
                                        CHANNELS 3 Zrotation Xrotation Yrotation
                                        End Site
                                        {
                                            OFFSET   1.818440   0.000000   0.000000
                                        }
                                    }
                                }
                            }
                        }
                    }
                }
            }
            JOINT RightCollar
            {
                OFFSET  -3.911900  19.017000  -0.467064
                CHANNELS 3 Zrotation Xrotation Yrotation
                JOINT RightShoulder
                {
                    OFFSET -10.383700   0.000000   0.000000
                    CHANNELS 3 Zrotation Xrotation Yrotation
                    JOINT RightElbow
                    {
                        OFFSET -26.662100   0.001633   0.000260
                        CHANNELS 3 Zrotation Xrotation Yrotation
                        JOINT RightWrist
                        {
                            OFFSET -28.869000  -0.000045  -0.000080
                            CHANNELS 3 Zrotation Xrotation Yrotation
                            JOINT RightFinger0
                            {
                                OFFSET  -2.044660  -2.323490   3.252850
                                CHANNELS 3 Zrotation Xrotation Yrotation
                                JOINT RightFinger01
                                {
                                    OFFSET  -3.088140   0.000000   0.000000
                                    CHANNELS 3 Zrotation Xrotation Yrotation
                                    JOINT RightFinger02
                                    {
                                        OFFSET  -2.639450   0.000000   0.000000
                                        CHANNELS 3 Zrotation Xrotation Yrotation
                                        End Site
                                        {
                                            OFFSET  -2.582190   0.000000   0.000000
                                        }
                                    }
                                }
                            }
                            JOINT RightFinger1
                            {
                                OFFSET  -8.364480   0.000000   3.252850
                                CHANNELS 3 Zrotation Xrotation Yrotation
                                JOINT RightFinger11
                                {
                                    OFFSET  -4.646920   0.000000   0.000000
                                    CHANNELS 3 Zrotation Xrotation Yrotation
                                    JOINT RightFinger12
                                    {
                                        OFFSET  -2.323470   0.000000   0.000000
                                        CHANNELS 3 Zrotation Xrotation Yrotation
                                        End Site
                                        {
                                            OFFSET  -2.273050   0.000000   0.000000
                                        }
                                    }
                                }
                            }
                            JOINT RightFinger2
                            {
                                OFFSET  -8.364480   0.000000   1.078090
                                CHANNELS 3 Zrotation Xrotation Yrotation
                                JOINT RightFinger21
                                {
                                    OFFSET  -5.111610   0.000000   0.000000
                                    CHANNELS 3 Zrotation Xrotation Yrotation
                                    JOINT RightFinger22
                                    {
                                        OFFSET  -2.788160   0.000000   0.000000
                                        CHANNELS 3 Zrotation Xrotation Yrotation
                                        End Site
                                        {
                                            OFFSET  -2.727660   0.000000   0.000000
                                        }
                                    }
                                }
                            }
                            JOINT RightFinger3
                            {
                                OFFSET  -7.899780   0.000000  -1.078090
                                CHANNELS 3 Zrotation Xrotation Yrotation
                                JOINT RightFinger31
                                {
                                    OFFSET  -4.646930   0.000000   0.000000
                                    CHANNELS 3 Zrotation Xrotation Yrotation
                                    JOINT RightFinger32
                                    {
                                        OFFSET  -2.323470   0.000000   0.000000
                                        CHANNELS 3 Zrotation Xrotation Yrotation
                                        End Site
                                        {
                                            OFFSET  -2.273050   0.000000   0.000000
                                        }
                                    }
                                }
                            }
                            JOINT RightFinger4
                            {
                                OFFSET  -7.435090   0.000000  -3.252850
                                CHANNELS 3 Zrotation Xrotation Yrotation
                                JOINT RightFinger41
                                {
                                    OFFSET  -3.717550   0.000000   0.000000
                                    CHANNELS 3 Zrotation Xrotation Yrotation
                                    JOINT RightFinger42
                                    {
                                        OFFSET  -1.858760   0.000000   0.000000
                                        CHANNELS 3 Zrotation Xrotation Yrotation
                                        End Site
                                        {
                                            OFFSET  -1.818440   0.000000   0.000000
                                        }
                                    }
                                }
                            }
                        }
                    }
                }
            }
        }
    }
    JOINT LeftHip
    {
        OFFSET   9.782990   0.000000   0.000000
        CHANNELS 3 Zrotation Xrotation Yrotation
        JOINT LeftKnee
        {
            OFFSET  -0.000063 -41.789100   0.001657
            CHANNELS 3 Zrotation Xrotation Yrotation
            JOINT LeftAnkle
            {
                OFFSET   0.000078 -41.133200  -0.000113
                CHANNELS 3 Zrotation Xrotation Yrotation
                JOINT LeftToe
                {
                    OFFSET   0.000000  -6.358970  14.674500
                    CHANNELS 3 Zrotation Xrotation Yrotation
                    End Site
                    {
                        OFFSET   0.000000   0.000000   3.913200
                    }
                }
            }
        }
    }
    JOINT RightHip
    {
        OFFSET  -9.782990   0.000000   0.000000
        CHANNELS 3 Zrotation Xrotation Yrotation
        JOINT RightKnee
        {
            OFFSET   0.000053 -41.789200   0.000277
            CHANNELS 3 Zrotation Xrotation Yrotation
            JOINT RightAnkle
            {
                OFFSET   0.000030 -41.133200  -0.000150
                CHANNELS 3 Zrotation Xrotation Yrotation
                JOINT RightToe
                {
                    OFFSET   0.000000  -6.358960  14.674500
                    CHANNELS 3 Zrotation Xrotation Yrotation
                    End Site
                    {
                        OFFSET   0.000000   0.000000   3.913200
                    }
                }
            }
        }
    }
}
MOTION
Frames: 6
Frame Time:   0.016667
 -0.632736  89.588700  -5.025800  -2.569320 -10.157200  -1.484620   0.812077   5.803400   0.664004   1.568280  11.615400   1.254520   0.232883  -0.482360  -0.002460   0.382796  -0.978232   3.177980  -4.973740  -0.359338  -0.174936 -74.220400  12.790100  -0.172791  -0.569816   0.349517 -20.162000  12.903200  -5.008290   1.896410  37.996200  29.692000 -53.671700 -32.431000  -0.001496   0.002443 -11.215500   0.002756   0.004431 -29.369300   6.208180 -10.874300 -24.517600   0.000000  -0.003989 -17.162300  -0.002781  -0.002663 -28.786600  -0.030989   0.058717 -41.972300   0.002992  -0.014922 -27.953600   0.006537  -0.004880 -28.445500  -0.030664   0.058736 -35.620800   0.002159  -0.002612 -23.723500  -0.006256  -0.000269 -33.675800  -0.032226   0.049811 -50.522500  -0.001717  -0.005295 -33.648000   0.001190  -0.001434  10.469400  -0.119476   7.786720  67.177600  10.069400  -7.661770  -5.651100  -0.303557  21.201000 -10.336700  -9.150890   1.109380 -38.945900  34.060900  61.833600  33.675600  -0.005889  -0.009568  11.837800  -0.000804   0.000736  35.841000  10.540700  14.209600  30.403100  -0.001307   0.003298  21.282200  -0.005689   0.003705  30.471200   1.276250   2.165220  45.745500   0.002891  -0.002935  30.466500  -0.005527  -0.002651  28.757800   0.756374   1.378250  40.861300   0.000442  -0.000277  27.213600  -0.001368  -0.000293  38.680900  -0.699740  -0.873491  58.029200  -0.004395   0.001843  38.647500  -0.001741   0.002901   2.205120  11.295400   4.470570   1.501210  -0.000998   5.948260  -1.316430  -1.597180   3.922550  -0.000000   0.000000   0.000000   4.161550   8.661030  -0.380017  -1.806310   4.881820  -8.187030  -0.332069  -4.174460  -2.791750  -0.000000   0.000000   0.000000
 -0.633011  89.588700  -5.025770  -2.577390 -10.185500  -1.487390   0.816278   5.822600   0.667139   1.576400  11.653800   1.259640   0.231330  -0.482295  -0.002446   0.380521  -0.978044   3.179660  -5.020060  -0.366807  -0.267652 -74.137800  12.803600  -0.193546  -0.530325   1.118410 -20.176500  12.981500  -5.274380   2.003260  38.110200  30.055400 -54.187600 -32.443600  -0.001500   0.002442 -11.221800   0.002774   0.004455 -29.451300   6.275270 -10.949000 -24.598900   0.000029  -0.003958 -17.219200  -0.002732  -0.002633 -28.786600   0.026902  -0.043529 -42.083800   0.003065  -0.015084 -28.027800   0.006479  -0.004856 -28.461800   0.026292  -0.044014 -35.847600   0.002238  -0.002652 -23.874500  -0.006260  -0.000168 -33.795200   0.082089  -0.119062 -50.700900  -0.001654  -0.005231 -33.766800   0.001025  -0.001378  10.512600  -0.145064   7.843310  67.069500  10.175200  -7.694620  -5.637990  -0.226792  21.364200 -10.435300  -9.086050   1.112730 -39.056600  34.052900  61.858200  33.482200  -0.006000  -0.008348  11.741100  -0.000787   0.000710  35.682500  10.655300  14.446100  30.292700  -0.001308   0.003206  21.205000  -0.005528   0.003654  30.423500   1.417180   2.405810  45.680700   0.002998  -0.003035  30.423400  -0.005578  -0.002751  28.752200   0.945406   1.721970  40.752900   0.000544  -0.000325  27.141400  -0.001284  -0.000351  38.681200  -0.699919  -0.873561  58.029700  -0.004301   0.001596  38.647800  -0.001805   0.002736   2.217310  11.309300   4.470620   1.491690   0.029519   5.948180  -1.319890  -1.613810   3.922280   0.000000   0.000000   0.000000   4.174020   8.680190  -0.372678  -1.810410   4.894230  -8.197270  -0.331871  -4.175030  -2.791450   0.000000   0.000000   0.000000
 -0.633286  89.588700  -5.025730  -2.593300 -10.243100  -1.495880   0.826449   5.867090   0.670304   1.596090  11.743000   1.264990   0.225558  -0.482230  -0.002411   0.370592  -0.977847   3.191370  -5.108300  -0.374271  -0.427202 -73.944700  12.898400  -0.214373  -0.536182   2.295610 -20.265700  13.125800  -5.540420   2.110250  38.350800  30.616400 -55.112200 -32.456300  -0.001507   0.002434 -11.228100   0.002804   0.004514 -29.548200   6.478100 -11.245100 -24.713500   0.000080  -0.003909 -17.299400  -0.002640  -0.002585 -28.785400   0.201743  -0.360289 -42.245100   0.003186  -0.015311 -28.135300   0.006348  -0.004817 -28.476800   0.199658  -0.361327 -36.074400   0.002369  -0.002708 -24.025600  -0.006268   0.000000 -33.913000   0.267925  -0.395289 -50.879200  -0.001531  -0.005125 -33.885600   0.000860  -0.001287  10.577800  -0.199046   7.933480  66.853700  10.346000  -7.786280  -5.625210  -0.148555  21.778500 -10.530400  -9.021140   1.137400 -39.377100  33.958800  61.981800  32.833000  -0.006153  -0.005473  11.416500  -0.000748   0.000651  35.476600  10.853300  14.806200  30.182400  -0.001312   0.003052  21.127700  -0.005368   0.003604  30.309700   1.714960   2.923010  45.526100   0.003178  -0.003206  30.320400  -0.005692  -0.002915  28.736100   1.308260   2.383000  40.525900   0.000687  -0.000395  26.990300  -0.001145  -0.000432  38.683300  -0.701172  -0.874052  58.033100  -0.004143   0.001184  38.650000  -0.001912   0.002462   2.238340  11.354000   4.471150   1.477160   0.060035   5.947620  -1.323710  -1.630440   3.922010   0.000000   0.000000  -0.000000   4.194520   8.720430  -0.359601  -1.815280   4.920330  -8.213380  -0.330487  -4.178970  -2.789320   0.000000   0.000000   0.000000
 -0.631133  89.592000  -5.028990  -2.609990 -10.305700  -1.509510   0.841245   5.925960   0.667788   1.625610  11.860800   1.258230   0.212832  -0.492972  -0.002357   0.349331  -0.999475   3.243600  -5.212030  -0.368593  -0.575244 -73.701200  13.346900  -0.190763  -0.705713   2.993410 -20.636300  13.232300  -4.936840   1.924690  38.648400  31.025900 -56.031800 -32.224500  -0.001513   0.002406 -11.112200   0.002828   0.004608 -29.511400   6.833750 -11.864700 -24.742000   0.000138  -0.003866 -17.319400  -0.002528  -0.002543 -28.735600   0.510418  -0.932691 -42.285800   0.003306  -0.015411 -28.162400   0.006162  -0.004778 -28.462900   0.508639  -0.932753 -35.959200   0.002499  -0.002730 -23.948900  -0.006276   0.000165 -33.849600   0.439697  -0.655826 -50.782000  -0.001373  -0.005015 -33.820900   0.000902  -0.001201  10.619200  -0.264579   8.011170  66.607000  10.501400  -7.942750  -5.646010  -0.146313  22.388900 -10.446100  -9.082290   1.423190 -39.797600  33.479000  62.365300  31.567800  -0.006213  -0.000072  10.783900  -0.000689   0.000565  35.412100  11.056500  15.061900  30.206800  -0.006120   0.002897  21.144000  -0.005407   0.003631  30.133900   2.093970   3.596250  45.289300   0.003364  -0.003386  30.162700  -0.005855  -0.003075  28.704900   1.715070   3.128000  40.228900   0.000748  -0.000429  26.792500  -0.001012  -0.000465  38.724000  -0.713973  -0.886971  58.095000  -0.003986   0.000774  38.691300  -0.002016   0.002190   2.253210  11.434500   4.481200   1.468150   0.032356   5.945210  -1.324490  -1.622390   3.922300   0.000000   0.000000   0.000000   4.208830   8.764330  -0.347045  -1.814550   4.952480  -8.223370  -0.320180  -4.189130  -2.780850  -0.000000   0.000000   0.000000
 -0.627067  89.597500  -5.034590  -2.632150 -10.392100  -1.530400   0.860143   6.005790   0.661731   1.663900  12.020600   1.242500   0.199125  -0.522727  -0.002291   0.327176  -1.059690   3.310810  -5.308370  -0.328898  -0.709613 -73.348500  14.182100  -0.120385  -0.877427   3.594530 -21.485900  13.361300  -3.997520   1.488630  38.961400  31.305700 -56.892300 -31.789200  -0.001520   0.002371 -10.894600   0.002857   0.004709 -29.467400   7.287540 -12.648600 -24.783600   0.000175  -0.003842 -17.348500  -0.002443  -0.002519 -28.674900   0.904260  -1.657580 -42.371200   0.003378  -0.015446 -28.219200   0.005956  -0.004755 -28.438200   0.900273  -1.657950 -35.784600   0.002577  -0.002736 -23.832500  -0.006286   0.000264 -33.786900   0.539939  -0.809016 -50.684800  -0.001230  -0.004949 -33.756100   0.001197  -0.001151  10.645000  -0.346645   8.055330  66.316000  10.589400  -8.132100  -5.796030  -0.145206  23.210200 -10.105400  -9.497920   2.120080 -40.289300  32.932600  62.626000  30.029900  -0.006230   0.003673  10.014900  -0.000615   0.000462  35.626300  11.212000  15.196400  30.377600  -0.011262   0.002803  21.258100  -0.005679   0.003824  29.930900   2.529770   4.378820  45.026700   0.003477  -0.003496  29.987800  -0.006028  -0.003169  28.670800   2.146110   3.917160  39.912700   0.000768  -0.000443  26.581800  -0.000934  -0.000475  38.826600  -0.743734  -0.919656  58.250200  -0.003891   0.000528  38.794700  -0.002077   0.002026   2.271050  11.541400   4.498290   1.460450   0.004677   5.937350  -1.325230  -1.614340   3.924430   0.000000   0.000000   0.000000   4.225720   8.829660  -0.334120  -1.812430   4.991380  -8.234100  -0.301568  -4.205430  -2.763170   0.000000   0.000000  -0.000000
 -0.621565  89.602100  -5.040700  -2.662820 -10.512100  -1.561480   0.882901   6.111530   0.654377   1.709840  12.232200   1.223880   0.188941  -0.571983  -0.002217   0.308469  -1.159810   3.363600  -5.363800  -0.227961  -0.807640 -72.858800  15.339500  -0.015585  -0.933849   4.141360 -22.841800  13.592200  -3.258230   0.886781  39.244900  31.321400 -57.536400 -31.324000  -0.001526   0.002351 -10.662000   0.002901   0.004794 -29.496100   7.832450 -13.537300 -24.901300   0.000153  -0.003860 -17.430900  -0.002424  -0.002536 -28.697700   1.375920  -2.509680 -42.694600   0.003330  -0.012721 -28.434600   0.005762  -0.004771 -28.410900   1.362690  -2.514280 -35.661800   0.002526  -0.002066 -23.750700  -0.006298   0.000198 -33.807700   0.523817  -0.784273 -50.715200  -0.001174  -0.004991 -33.776300   0.003614  -0.001185  10.641900  -0.449664   8.037440  65.983700  10.555600  -8.323360  -6.129760  -0.356724  24.225100  -9.325620 -10.443200   3.194900 -40.895300  32.587400  62.395000  28.593800  -0.005901   0.003550   9.296880  -0.000524   0.000352  36.431800  11.265700  14.879400  30.992800  -0.011487   0.002866  21.690800  -0.008110   0.004068  29.747600   2.959810   5.159210  44.801800   0.003404  -0.003425  29.838000  -0.006188  -0.003104  28.674700   2.525740   4.590570  39.598900   0.000345  -0.000242  26.372800  -0.000988  -0.000238  38.981000  -0.783733  -0.968493  58.481900  -0.003954   0.000692  38.949000  -0.002036   0.002136   2.298620  11.656400   4.517790   1.454580   0.031007   5.920270  -1.328380  -1.637670   3.938700   0.000000   0.000000   0.000000   4.248190   8.927810  -0.322152  -1.809610   5.034690  -8.250380  -0.278247  -4.228230  -2.733530   0.000000   0.000000   0.000000
